<svg width="988" height="536" viewBox="0 0 988 536" fill="none" xmlns="http://www.w3.org/2000/svg">
<path d="M441.315 242.419H347.486C359.428 314.228 401.225 366.685 483.112 366.685C581.206 366.685 613.619 321.868 623.855 259.226L758.628 260.244C727.92 342.748 614.472 384.51 483.112 384.51C329.573 384.51 226.362 331.035 199.066 242.419H77.9414L112.061 209.825H193.095C192.242 204.223 192.242 198.112 192.242 192C192.242 182.833 192.242 174.175 193.948 165.517H77.9414L112.061 133.432H202.478C233.186 49.9099 333.838 0 483.112 0C614.472 0 727.067 41.252 757.774 124.265L623.002 124.775C612.766 62.642 586.323 17.3157 483.112 17.3157C400.372 17.3157 361.134 66.207 348.339 133.432H545.38L511.26 165.517H344.074C343.221 174.175 343.221 183.342 343.221 192V209.825H475.435L441.315 242.419Z" fill="#1A256D"/>
<path d="M834.019 35.4737L854.319 167.922L986.281 191.175L853.832 211.475L830.579 343.437L810.279 210.989L678.317 187.736L810.766 167.436L834.019 35.4737Z" fill="#1A256D"/>
<path d="M80.156 521.844V493.057H91.5927C99.087 493.057 104.161 496.882 104.161 503.908V510.993C104.161 518.019 99.087 521.844 91.5927 521.844H80.156ZM87.9235 517.667H91.5927C94.325 517.667 96.179 515.637 96.179 512.164V502.737C96.179 499.205 94.325 497.233 91.5927 497.233H87.9235V517.667ZM129.81 515.755C129.81 509.626 126.59 509.217 123.33 509.217H120.93V521.844H113.162V493.057H127.585C133.655 493.057 137.753 495.965 137.753 500.981C137.753 504.22 135.801 506.582 132.62 507.714C135.606 508.436 137.577 510.427 137.577 515.755V521.844H129.81V515.755ZM120.93 505.216H125.009C127.839 505.216 129.673 503.635 129.673 501.234C129.673 498.795 127.839 497.233 125.009 497.233H120.93V505.216ZM146.676 503.127C146.676 496.375 151.653 492.549 159.01 492.549C166.368 492.549 171.364 496.375 171.364 503.127V521.844H163.363V510.036H154.678V521.844H146.676V503.127ZM154.678 505.86H163.363V501.937C163.363 498.482 161.606 496.726 159.01 496.726C156.415 496.726 154.678 498.482 154.678 501.937V505.86ZM217.857 521.844H209.855V502.249C209.855 498.678 208.176 497.233 205.6 497.233H203.2L203.18 521.844H195.198V497.233H192.797C190.221 497.233 188.543 498.678 188.543 502.249V521.844H180.541V501.956C180.541 495.848 183.781 493.057 191.119 493.057H207.259C214.617 493.057 217.857 495.848 217.857 501.956V521.844ZM264.368 521.844H256.367V502.249C256.367 498.678 254.688 497.233 252.112 497.233H249.712L249.692 521.844H241.71V497.233H239.309C236.733 497.233 235.055 498.678 235.055 502.249V521.844H227.053V501.956C227.053 495.848 230.293 493.057 237.631 493.057H253.771C261.129 493.057 264.368 495.848 264.368 501.956V521.844ZM273.604 521.844V493.057H294.525V497.233H281.371V504.962H294.076V509.119H281.371V517.667H294.525V521.844H273.604ZM327.981 521.844H319.979V502.757C319.979 499.166 318.3 497.214 315.724 497.233H310.943V521.844H302.941V493.057H317.383C324.741 493.057 327.981 496.687 327.981 502.796V521.844Z" fill="#1A256D"/>
<path d="M448.378 518.78C448.378 505.333 464.674 507.597 464.674 500.493C464.674 498.17 463.055 496.55 460.634 496.55C457.805 496.55 456.087 498.814 456.087 502.327V503.166H448.085C448.085 496.648 452.984 492.588 460.713 492.588C467.797 492.588 472.461 495.984 472.461 501.488C472.461 511.617 456.751 509.783 456.146 517.628L472.364 517.667V521.844H448.378V518.78ZM492.86 522.371C485.444 522.371 480.428 518.526 480.428 511.441V503.459C480.428 496.394 485.444 492.549 492.86 492.549C500.276 492.549 505.292 496.394 505.292 503.459V511.441C505.292 518.526 500.276 522.371 492.86 522.371ZM488.43 512.593C488.43 516.164 490.225 518.194 492.86 518.194C495.495 518.194 497.29 516.164 497.29 512.593V502.269C497.29 498.717 495.495 496.726 492.86 496.726C490.225 496.726 488.43 498.717 488.43 502.269V512.593ZM513.493 518.78C513.493 505.333 529.789 507.597 529.789 500.493C529.789 498.17 528.169 496.55 525.749 496.55C522.919 496.55 521.202 498.814 521.202 502.327V503.166H513.2C513.2 496.648 518.099 492.588 525.827 492.588C532.912 492.588 537.576 495.984 537.576 501.488C537.576 511.617 521.866 509.783 521.261 517.628L537.479 517.667V521.844H513.493V518.78ZM557.819 522.371C550.481 522.371 545.543 518.428 545.543 511.5V503.303C545.543 496.453 550.422 492.549 557.819 492.549C565.43 492.549 569.939 496.336 569.939 501.371H561.878V500.824C561.878 498.287 560.239 496.726 557.721 496.726C555.184 496.726 553.545 498.404 553.545 500.981V506.133C554.95 504.006 557.331 502.718 560.532 502.718C566.504 502.718 570.114 506.192 570.114 511.91C570.114 520.38 562.776 522.371 557.819 522.371ZM553.545 513.686C553.545 516.418 555.223 518.194 557.819 518.194C560.454 518.194 562.113 516.418 562.113 513.686V511.5C562.113 508.748 560.415 506.972 557.76 506.972C555.223 506.972 553.545 508.748 553.545 511.5V513.686Z" fill="#1A256D"/>
<path d="M693.145 521.844V493.057H714.067V497.233H700.913V504.962H713.618V509.119H700.913V517.667H714.067V521.844H693.145ZM734.739 522.371C727.381 522.371 722.404 518.526 722.404 511.754V493.057H730.406V512.261C730.406 516.164 732.143 518.175 734.739 518.175C737.334 518.175 739.071 516.164 739.071 512.261V493.057H747.073V511.754C747.073 518.526 742.096 522.371 734.739 522.371ZM773.034 515.755C773.034 509.626 769.814 509.217 766.555 509.217H764.154V521.844H756.386V493.057H770.809C776.879 493.057 780.977 495.965 780.977 500.981C780.977 504.22 779.026 506.582 775.844 507.714C778.83 508.436 780.802 510.427 780.802 515.755V521.844H773.034V515.755ZM764.154 505.216H768.233C771.063 505.216 772.897 503.635 772.897 501.234C772.897 498.795 771.063 497.233 768.233 497.233H764.154V505.216ZM802.059 522.371C794.565 522.371 789.49 518.526 789.49 511.441V503.459C789.49 496.394 794.565 492.549 802.059 492.549C809.553 492.549 814.628 496.394 814.628 503.459V511.441C814.628 518.526 809.553 522.371 802.059 522.371ZM797.492 512.593C797.492 516.145 799.327 518.194 802.059 518.194C804.791 518.194 806.626 516.145 806.626 512.593V502.269C806.626 498.717 804.791 496.726 802.059 496.726C799.327 496.726 797.492 498.717 797.492 502.269V512.593ZM823.609 493.057H837.993C844.101 493.057 848.2 496.238 848.2 501.586C848.2 506.933 844.101 510.114 837.993 510.114H831.377V521.844H823.609V493.057ZM831.377 505.957H835.417C838.286 505.957 840.12 504.24 840.12 501.586C840.12 498.951 838.286 497.233 835.417 497.233H831.377V505.957ZM856.459 503.127C856.459 496.375 861.436 492.549 868.794 492.549C876.151 492.549 881.148 496.375 881.148 503.127V521.844H873.146V510.036H864.461V521.844H856.459V503.127ZM864.461 505.86H873.146V501.937C873.146 498.482 871.389 496.726 868.794 496.726C866.198 496.726 864.461 498.482 864.461 501.937V505.86Z" fill="#1A256D"/>
</svg>
